<svg width="36" height="36" viewBox="0 0 36 36" fill="none" xmlns="http://www.w3.org/2000/svg">
<path d="M30 0.5C33 0.5 35.5 3 35.5 6V30C35.5 33 33 35.5 30 35.5H6C3 35.5 0.5 33 0.5 30V6C0.5 3 3 0.5 6 0.5H30ZM30 0H6C2.7 0 0 2.7 0 6V30C0 33.3 2.7 36 6 36H30C33.3 36 36 33.3 36 30V6C36 2.7 33.3 0 30 0Z" fill="black"/>
<path d="M11.6001 27.7V9H18.9001C22.1001 9 24.3001 10.9 24.3001 13.7C24.3001 15.6 22.9001 17.4 21.1001 17.8V17.9C23.6001 18.2 25.3001 20 25.3001 22.5C25.3001 25.8 22.9001 27.7 19.0001 27.7H11.6001V27.7ZM13.9001 17.1H17.6001C20.4001 17.1 21.9001 16 21.9001 14C21.9001 12.2 20.6001 11.1 18.4001 11.1H14.0001V17.1H13.9001ZM18.5001 25.7C21.3001 25.7 22.8001 24.6 22.8001 22.4C22.8001 20.2 21.3001 19.1 18.3001 19.1H13.9001V25.7H18.5001Z" fill="black"/>
</svg>
